<svg width="32" height="32" viewBox="0 0 32 32" fill="none" xmlns="http://www.w3.org/2000/svg">
<path d="M16 4.99999C16.375 4.99999 23.1955 4.98464 27.4805 6.63964C27.9231 6.81328 28.318 7.09001 28.6328 7.44628C28.9477 7.80272 29.1732 8.22961 29.291 8.69042C29.6147 9.938 30 12.2178 30 16C30 19.7821 29.6147 22.0595 29.291 23.3096C29.1734 23.7706 28.9477 24.1971 28.6328 24.5537C28.318 24.9103 27.9233 25.1875 27.4805 25.3613C23.3792 26.9451 16.9495 27 16.082 27H15.918C15.0505 27 8.62453 26.9451 4.51953 25.3613C4.07675 25.1875 3.68203 24.9103 3.36719 24.5537C3.0523 24.1971 2.82658 23.7706 2.70898 23.3096C2.38525 22.062 2 19.7821 2 16C2 12.2178 2.38525 9.938 2.70898 8.69042C2.82677 8.22961 3.05226 7.80272 3.36719 7.44628C3.68202 7.09001 4.07692 6.81328 4.51953 6.63964C8.80453 4.98464 15.625 4.99999 16 4.99999ZM10.5 20.75C10.3011 20.75 10.1104 20.8291 9.96973 20.9697C9.82908 21.1104 9.75 21.3011 9.75 21.5C9.75 21.6989 9.82908 21.8896 9.96973 22.0303C10.1104 22.1709 10.3011 22.25 10.5 22.25H21.5C21.6989 22.25 21.8896 22.1709 22.0303 22.0303C22.1709 21.8896 22.25 21.6989 22.25 21.5C22.25 21.3011 22.1709 21.1104 22.0303 20.9697C21.8896 20.8291 21.6989 20.75 21.5 20.75H10.5ZM16 9.24999C15.8011 9.24999 15.6104 9.32907 15.4697 9.46972C15.3291 9.61037 15.25 9.80108 15.25 9.99999V17.1875L12.0322 13.9678C11.8914 13.827 11.7001 13.7481 11.501 13.748C11.3019 13.748 11.1106 13.8271 10.9697 13.9678C10.8289 14.1086 10.7491 14.2999 10.749 14.499C10.749 14.6983 10.8288 14.8894 10.9697 15.0303L15.4697 19.5303C15.5393 19.6 15.6219 19.6556 15.7129 19.6934C15.8041 19.7312 15.9023 19.751 16.001 19.751C16.0995 19.7509 16.1971 19.7311 16.2881 19.6934C16.3792 19.6555 16.4625 19.6002 16.5322 19.5303L21.0322 15.0303C21.173 14.8894 21.2519 14.6982 21.252 14.499C21.252 14.2999 21.1729 14.1086 21.0322 13.9678C20.8914 13.827 20.7001 13.7472 20.501 13.7471C20.3017 13.7471 20.1106 13.8269 19.9697 13.9678L16.75 17.1875V9.99999C16.75 9.80108 16.6709 9.61037 16.5303 9.46972C16.3896 9.32907 16.1989 9.24999 16 9.24999Z" fill="#EC003F"/>
</svg>
