<svg width="192" height="108" viewBox="0 0 192 108" fill="none" xmlns="http://www.w3.org/2000/svg">
<rect width="192" height="108" fill="#CAD5E2"/>
<path d="M111.471 47.125C111.312 47.0395 111.132 46.9989 110.951 47.0075C110.771 47.0161 110.596 47.0735 110.445 47.1737L106 50.1313V47C106 46.4696 105.789 45.9609 105.414 45.5858C105.039 45.2107 104.53 45 104 45H94.1325C93.8673 45 93.6129 45.1054 93.4254 45.2929C93.2379 45.4804 93.1325 45.7348 93.1325 46C93.1325 46.2652 93.2379 46.5196 93.4254 46.7071C93.6129 46.8946 93.8673 47 94.1325 47H104V57.9538C104 58.219 104.105 58.4733 104.293 58.6609C104.48 58.8484 104.735 58.9538 105 58.9538C105.265 58.9538 105.52 58.8484 105.707 58.6609C105.895 58.4733 106 58.219 106 57.9538V57.875L110.445 60.8388C110.61 60.946 110.803 61.002 111 61C111.265 61 111.52 60.8946 111.707 60.7071C111.895 60.5196 112 60.2652 112 60V48C111.999 47.8201 111.949 47.6438 111.856 47.4898C111.763 47.3358 111.63 47.2098 111.471 47.125ZM110 58.1313L106 55.465V52.535L110 49.875V58.1313ZM86.74 42.3275C86.6522 42.2285 86.5456 42.1479 86.4264 42.0904C86.3072 42.0329 86.1778 41.9997 86.0457 41.9926C85.9135 41.9855 85.7813 42.0047 85.6566 42.049C85.5319 42.0934 85.4173 42.1621 85.3194 42.2511C85.2215 42.3401 85.1422 42.4476 85.0861 42.5675C85.03 42.6874 84.9983 42.8172 84.9928 42.9494C84.9873 43.0816 85.0081 43.2136 85.0539 43.3377C85.0998 43.4619 85.1698 43.5756 85.26 43.6725L86.4662 45H84C83.4696 45 82.9609 45.2107 82.5858 45.5858C82.2107 45.9609 82 46.4696 82 47V61C82 61.5304 82.2107 62.0391 82.5858 62.4142C82.9609 62.7893 83.4696 63 84 63H102.83L105.26 65.6725C105.348 65.7715 105.454 65.8521 105.574 65.9096C105.693 65.9671 105.822 66.0003 105.954 66.0074C106.086 66.0145 106.219 65.9953 106.343 65.951C106.468 65.9066 106.583 65.8379 106.681 65.7489C106.779 65.6599 106.858 65.5524 106.914 65.4325C106.97 65.3126 107.002 65.1828 107.007 65.0506C107.013 64.9184 106.992 64.7864 106.946 64.6623C106.9 64.5381 106.83 64.4244 106.74 64.3275L86.74 42.3275ZM84 61V47H88.285L101.013 61H84Z" fill="#90A1B9"/>
</svg>
